<svg width="17" height="16" viewBox="0 0 17 16" fill="none" xmlns="http://www.w3.org/2000/svg">
<path fill-rule="evenodd" clip-rule="evenodd" d="M4.1594 0.204346C2.2995 0.204346 0.791748 1.7121 0.791748 3.572V11.8936C0.791748 13.7535 2.2995 15.2613 4.15941 15.2613H12.6453C14.5052 15.2613 16.0129 13.7535 16.0129 11.8936V3.572C16.0129 1.7121 14.5052 0.204346 12.6453 0.204346H4.1594ZM11.2655 5.11356V8.66633C11.2655 8.83576 11.1455 8.98202 10.9779 9.01677L9.85123 9.25052C9.24962 9.37536 8.83507 9.92234 8.88262 10.5286C8.92861 11.1657 9.48563 11.6469 10.1301 11.6062L10.4519 11.5858C11.2418 11.5359 11.8567 10.8876 11.8567 10.1046V2.77543C11.8567 2.53275 11.6318 2.35101 11.3914 2.39941L6.44822 3.39461C6.24167 3.43619 6.0933 3.61586 6.0933 3.82435V9.62866C6.0933 9.82396 5.9573 9.9935 5.76505 10.0379L4.64732 10.296C4.10398 10.4215 3.71961 10.9007 3.71961 11.4527V11.4831C3.71961 12.1433 4.27162 12.6726 4.93863 12.6521L5.25262 12.6424C6.05048 12.6178 6.68441 11.9709 6.68441 11.1812V5.96873C6.68441 5.84692 6.77123 5.742 6.89193 5.71795L11.0001 4.89863C11.1373 4.87126 11.2655 4.97505 11.2655 5.11356Z" fill="url(#paint0_linear_0_58)"/>
<defs>
<linearGradient id="paint0_linear_0_58" x1="2.02976" y1="2.65364" x2="2.02976" y2="15.2613" gradientUnits="userSpaceOnUse">
<stop stop-color="#F5586F"/>
<stop offset="1" stop-color="#F2233A"/>
</linearGradient>
</defs>
</svg>
