<svg width="247" height="233" viewBox="0 0 247 233" fill="none" xmlns="http://www.w3.org/2000/svg">
<rect width="225" height="239" transform="matrix(0 1 1 0 4 0)" fill="white"/>
<mask id="mask0_0_7" style="mask-type:alpha" maskUnits="userSpaceOnUse" x="4" y="0" width="239" height="225">
<rect width="225" height="239" transform="matrix(0 1 1 0 4 0)" fill="white"/>
</mask>
<g mask="url(#mask0_0_7)">
<path fill-rule="evenodd" clip-rule="evenodd" d="M392.5 -914.175C392.5 -999.724 352.322 -1077.51 273.07 -1145.37C233.894 -1178.91 194.562 -1200.93 190.209 -1203.33L19.8672 -1297.5L-215.396 -924.094L-166.6 -896.796C-193.045 -852.591 -206.424 -804.21 -206.424 -752.559C-206.424 -723.054 -201.796 -693.249 -192.338 -661.974C-238.982 -624.92 -309.5 -558.359 -309.5 -450.43C-309.5 -445.164 -309.325 -439.842 -308.961 -434.617C-303.289 -352.684 -259.59 -285.138 -178.983 -233.595C-197.931 -204.855 -211.564 -175.211 -220.377 -143.706C-227.795 -117.15 -231.547 -89.6964 -231.547 -62.0966C-231.547 16.9967 -202.325 94.9435 -142.19 176.205C-132.57 189.204 -125.612 199.878 -120.607 208.394L-187.274 249.256L47.4768 587.5L213.59 485.725C231.398 474.836 321.589 414.224 347.01 291.734C351.496 270.161 353.763 247.774 353.763 225.204C353.767 140.351 321.443 49.8344 257.606 -44.1554C303.589 -90.3022 350.494 -153.303 357.489 -242.915C358.13 -251.338 358.448 -259.583 358.448 -267.483C358.448 -354.169 323.803 -428.369 255.381 -488.406C278.65 -532.279 290.009 -578.283 290.012 -628.272C290.012 -648.385 287.963 -668.83 283.923 -689.039C283.159 -692.879 282.313 -696.706 281.391 -700.556C335.132 -742.145 391.525 -809.973 392.5 -911.758V-913.883V-914.175Z" stroke="black" stroke-width="2.7"/>
<path d="M250.806 -1122.4L249.928 -1121.38L249.928 -1121.38L250.806 -1122.4ZM173.485 -1176.53L172.833 -1175.35L172.832 -1175.35L173.485 -1176.53ZM31.52 -1255.02L30.3778 -1255.74L31.0574 -1256.81L32.1731 -1256.2L31.52 -1255.02ZM-170.147 -934.934L-170.806 -933.755L-172.047 -934.45L-171.289 -935.653L-170.147 -934.934ZM-120.468 -907.141L-119.809 -908.319L-118.454 -907.561L-119.393 -906.325L-120.468 -907.141ZM-154.15 -651.277L-152.881 -651.737L-152.543 -650.804L-153.332 -650.203L-154.15 -651.277ZM-275.973 -436.608L-274.626 -436.701L-274.626 -436.701L-275.973 -436.608ZM-144.944 -249.899L-144.269 -251.068L-144.268 -251.068L-144.944 -249.899ZM-132.329 -242.754L-131.674 -243.934L-130.281 -243.161L-131.272 -241.914L-132.329 -242.754ZM-188.411 -135.809L-189.711 -136.172L-189.711 -136.173L-188.411 -135.809ZM-115.053 158.466L-116.138 159.269L-116.138 159.269L-115.053 158.466ZM-78.5281 219.696L-77.268 219.211L-76.8648 220.26L-77.8226 220.847L-78.5281 219.696ZM-141.522 258.306L-142.631 259.075L-143.446 257.902L-142.228 257.155L-141.522 258.306ZM57.1064 544.513L57.8117 545.664L56.7243 546.33L55.9973 545.282L57.1064 544.513ZM195.534 459.7L194.829 458.549L194.83 458.548L195.534 459.7ZM314.564 285.784L313.242 285.51L313.242 285.51L314.564 285.784ZM320.709 225.204L319.359 225.204L319.359 225.204L320.709 225.204ZM215.342 -47.9425L214.249 -47.1497L213.546 -48.1188L214.424 -48.9327L215.342 -47.9425ZM324.521 -245.186L325.867 -245.084L325.867 -245.081L324.521 -245.186ZM213.626 -481.397L212.807 -480.324L211.822 -481.076L212.487 -482.122L213.626 -481.397ZM256.958 -628.272L258.308 -628.272L258.308 -628.272L256.958 -628.272ZM251.438 -683.304L252.761 -683.569L252.761 -683.569L251.438 -683.304ZM243.934 -712.588L242.644 -712.188L242.349 -713.141L243.172 -713.703L243.934 -712.588ZM359.443 -912.037H360.793L360.793 -912.024L359.443 -912.037ZM-9.90753 225.487L-9.91519 224.137L-8.55753 224.129V225.487H-9.90753ZM-10.0464 227.416L-8.70908 227.601L-11.3869 227.256L-10.0464 227.416ZM-9.95712 226.667L-9.8325 225.323L-8.45256 225.451L-8.61661 226.827L-9.95712 226.667ZM-21.9536 225.555L-22.0783 226.899L-21.9613 224.205L-21.9536 225.555ZM358.093 -914.175C358.093 -990.128 321.795 -1059.84 249.928 -1121.38L251.684 -1123.43C323.993 -1061.51 360.793 -991.102 360.793 -914.175H358.093ZM249.928 -1121.38C213.352 -1152.69 176.849 -1173.14 172.833 -1175.35L174.137 -1177.72C178.22 -1175.46 214.906 -1154.92 251.684 -1123.43L249.928 -1121.38ZM172.832 -1175.35L30.8668 -1253.83L32.1731 -1256.2L174.138 -1177.72L172.832 -1175.35ZM32.6622 -1254.3L-169.004 -934.214L-171.289 -935.653L30.3778 -1255.74L32.6622 -1254.3ZM-169.487 -936.112L-119.809 -908.319L-121.127 -905.963L-170.806 -933.755L-169.487 -936.112ZM-119.393 -906.325C-154.35 -860.287 -172.013 -808.728 -172.013 -752.559H-174.713C-174.713 -809.336 -156.846 -861.466 -121.543 -907.958L-119.393 -906.325ZM-172.013 -752.559C-172.013 -713.655 -162.958 -679.545 -152.881 -651.737L-155.419 -650.817C-165.56 -678.8 -174.713 -713.235 -174.713 -752.559H-172.013ZM-153.332 -650.203C-197.12 -616.853 -275.096 -555.99 -275.096 -450.43H-277.796C-277.796 -557.455 -198.69 -619.051 -154.968 -652.351L-153.332 -650.203ZM-275.096 -450.43C-275.096 -445.862 -274.942 -441.245 -274.626 -436.701L-277.32 -436.515C-277.64 -441.123 -277.796 -445.802 -277.796 -450.43H-275.096ZM-274.626 -436.701C-269.349 -360.478 -225.608 -298.024 -144.269 -251.068L-145.619 -248.73C-227.537 -296.019 -271.966 -359.187 -277.32 -436.515L-274.626 -436.701ZM-144.268 -251.068C-140.153 -248.689 -135.971 -246.319 -131.674 -243.934L-132.984 -241.573C-137.295 -243.966 -141.49 -246.344 -145.619 -248.73L-144.268 -251.068ZM-131.272 -241.914C-158.276 -207.946 -176.642 -172.857 -187.111 -135.445L-189.711 -136.173C-179.135 -173.968 -160.589 -209.376 -133.386 -243.594L-131.272 -241.914ZM-187.11 -135.446C-193.765 -111.593 -197.143 -86.9208 -197.143 -62.0966H-199.843C-199.843 -87.1658 -196.432 -112.082 -189.711 -136.172L-187.11 -135.446ZM-197.143 -62.0966C-197.143 10.0791 -169.992 81.9507 -113.968 157.663L-116.138 159.269C-172.403 83.232 -199.843 10.8102 -199.843 -62.0966H-197.143ZM-113.968 157.663C-90.9807 188.724 -81.2845 208.766 -77.268 219.211L-79.7881 220.18C-83.6988 210.01 -93.2618 190.18 -116.138 159.269L-113.968 157.663ZM-77.8226 220.847L-140.817 259.457L-142.228 257.155L-79.2335 218.545L-77.8226 220.847ZM-140.413 257.536L58.2155 543.743L55.9973 545.282L-142.631 259.075L-140.413 257.536ZM56.4011 543.362L194.829 458.549L196.239 460.851L57.8117 545.664L56.4011 543.362ZM194.83 458.548C210.56 448.926 290.479 395.177 313.242 285.51L315.886 286.059C292.897 396.811 212.21 451.082 196.239 460.852L194.83 458.548ZM313.242 285.51C317.302 265.978 319.359 245.687 319.359 225.204H322.059C322.059 245.866 319.984 266.341 315.886 286.059L313.242 285.51ZM319.359 225.204C319.363 140.671 284.077 49.0857 214.249 -47.1497L216.435 -48.7353C286.466 47.7808 322.063 139.913 322.059 225.204L319.359 225.204ZM214.424 -48.9327C254.329 -85.9164 315.651 -148.915 323.175 -245.291L325.867 -245.081C318.257 -147.612 256.235 -84.001 216.26 -46.9524L214.424 -48.9327ZM323.175 -245.288C323.751 -252.874 324.043 -260.324 324.043 -267.483H326.743C326.743 -260.252 326.448 -252.733 325.867 -245.084L323.175 -245.288ZM324.043 -267.483C324.043 -352.431 286.706 -423.88 212.807 -480.324L214.446 -482.47C288.941 -425.57 326.743 -353.36 326.743 -267.483H324.043ZM212.487 -482.122C241.463 -527.666 255.605 -575.737 255.608 -628.272L258.308 -628.272C258.305 -575.211 244.01 -526.639 214.766 -480.673L212.487 -482.122ZM255.608 -628.272C255.608 -646.371 253.76 -664.795 250.114 -683.04L252.761 -683.569C256.441 -665.155 258.308 -646.553 258.308 -628.272H255.608ZM250.114 -683.039C248.216 -692.519 245.745 -702.176 242.644 -712.188L245.223 -712.987C248.35 -702.893 250.844 -693.146 252.761 -683.569L250.114 -683.039ZM243.172 -713.703C293.226 -747.867 357.13 -811.175 358.093 -912.05L360.793 -912.024C359.818 -809.871 295.076 -745.861 244.695 -711.473L243.172 -713.703ZM358.093 -912.037V-913.929H360.793V-912.037H358.093ZM358.093 -913.929V-914.175H360.793V-913.929H358.093ZM-8.55753 225.487C-8.55753 226.656 -8.67552 227.358 -8.70908 227.601L-11.3837 227.231C-11.3511 226.996 -11.2575 226.454 -11.2575 225.487H-8.55753ZM-11.3869 227.256L-11.2976 226.507L-8.61661 226.827L-8.70587 227.576L-11.3869 227.256ZM-10.0817 228.011L-22.0783 226.899L-21.829 224.211L-9.8325 225.323L-10.0817 228.011ZM-21.9613 224.205L-9.91519 224.137L-9.89987 226.837L-21.946 226.905L-21.9613 224.205Z" fill="black"/>
<path fill-rule="evenodd" clip-rule="evenodd" d="M326.385 -914.175C326.385 -981.512 293.463 -1043.84 228.539 -1099.44C194.361 -1128.71 160.503 -1147.67 156.758 -1149.74L43.1694 -1212.53L-124.901 -945.776L-70.7695 -915.489C-116.944 -868.056 -140.309 -813.403 -140.309 -752.559C-140.309 -706.508 -125.86 -667.417 -115.106 -641.407C-119.44 -637.872 -124.841 -633.606 -131.529 -628.515C-173.37 -596.674 -243.385 -543.379 -243.385 -450.43C-243.385 -446.497 -243.25 -442.52 -242.982 -438.603C-238.41 -372.486 -199.597 -317.911 -127.641 -276.368C-111.509 -267.054 -96.1344 -258.908 -81.7975 -251.552C-109.579 -222.66 -141.37 -181.779 -156.438 -127.912C-162.405 -106.525 -165.433 -84.384 -165.433 -62.0966C-165.433 3.88952 -140.074 70.233 -87.9098 140.727C-43.9567 200.13 -42.9649 225.238 -42.9616 225.487V225.48C-42.9616 224.34 -42.8658 223.744 -42.8526 223.623L-42.8988 224.033L-27.5602 225.546L-95.7774 267.356L66.7393 501.525L177.482 433.675C191.379 425.172 261.798 377.746 282.118 279.835C285.794 262.161 287.649 243.779 287.649 225.204C287.652 144.868 252.611 56.7716 183.485 -36.6372C178.946 -42.7761 175.445 -47.9487 172.748 -52.2266C176.695 -55.9204 180.493 -59.3876 182.923 -61.6057C220.826 -96.2267 284.273 -154.163 291.553 -247.46C292.068 -254.28 292.333 -261.002 292.333 -267.483C292.333 -373.437 228.886 -435.226 168.867 -474.09C205.835 -521.821 223.894 -572.56 223.897 -628.278C223.897 -644.542 222.231 -661.126 218.945 -677.569C215.392 -695.361 210.06 -711.46 204.757 -725.307C253.771 -753.615 325.427 -812.104 326.385 -912.314V-913.982V-914.175Z" stroke="black" stroke-width="2.7"/>
<path fill-rule="evenodd" clip-rule="evenodd" d="M293.328 -914.175C293.328 -972.407 264.042 -1027.01 206.275 -1076.47C174.625 -1103.58 143.472 -1121.05 140.027 -1122.94L54.8254 -1170.05L-79.6487 -956.615L-16.5323 -921.302C-76.7727 -873.639 -107.252 -817.032 -107.252 -752.559C-107.252 -707.061 -90.6833 -667.765 -80.7859 -644.281C-79.6091 -641.497 -77.7512 -637.083 -76.1579 -633.125C-81.252 -628.061 -91.2387 -619.21 -110.729 -604.372C-150.395 -574.185 -210.328 -528.563 -210.328 -450.43C-210.328 -447.162 -210.215 -443.85 -209.997 -440.597C-206.159 -385.143 -172.626 -338.8 -110.333 -302.84C-86.7627 -289.23 -64.5646 -278.049 -44.9748 -268.179C-38.37 -264.858 -32.5982 -261.897 -27.547 -259.266C-59.7449 -229.821 -106.009 -186.001 -124.465 -120.015C-129.717 -101.21 -132.375 -81.7247 -132.375 -62.0966C-132.375 -2.66874 -108.954 57.8745 -60.7697 122.988C-13.5769 186.78 -9.90427 217.54 -9.90427 225.449C-9.90427 226.251 -9.95385 226.655 -9.95715 226.692C-9.92079 226.422 -9.60675 224.35 -7.89438 221.081L19.4804 233.806L-50.026 276.405L76.3722 458.538L159.429 407.657C171.369 400.344 231.901 359.503 249.679 273.886C252.935 258.175 254.591 241.797 254.591 225.204C254.594 151.333 221.54 69.2015 156.345 -18.9012C141.079 -39.5389 135.277 -51.9253 133.112 -57.8466C139.191 -64.9951 152.758 -77.3752 159.888 -83.89C196.658 -117.47 252.218 -168.212 258.578 -249.731C259.044 -255.752 259.275 -261.72 259.275 -267.483C259.275 -374.813 185.495 -430.314 119.793 -466.535C167.525 -516.441 190.837 -569.661 190.84 -628.282C190.84 -642.622 189.369 -657.279 186.46 -671.834C181.409 -697.101 171.987 -719.435 165.118 -735.739C164.781 -736.528 164.397 -737.438 163.981 -738.436C167.898 -740.905 172.761 -743.757 178.777 -746.96C221.183 -769.561 292.452 -821.136 293.328 -912.593V-914.054V-914.175Z" stroke="black" stroke-width="2.7"/>
<path fill-rule="evenodd" clip-rule="evenodd" d="M260.27 -914.175C260.27 -963.301 234.611 -1010.18 184.014 -1053.51C154.907 -1078.43 126.444 -1094.42 123.287 -1096.16L66.4715 -1127.57L-34.4064 -967.455L22.2738 -935.745C29.3117 -931.808 35.8306 -927.372 41.5628 -922.995C-35.2758 -876.177 -74.1943 -818.93 -74.1943 -752.559C-74.1943 -712.992 -59.6622 -678.526 -50.0525 -655.726C-46.4062 -647.08 -41.9137 -636.424 -40.9683 -631.674C-40.6741 -630.229 -40.6179 -629.235 -40.6179 -628.654C-40.6179 -617.762 -77.7248 -589.513 -89.9263 -580.23C-126.792 -552.171 -177.271 -513.735 -177.271 -450.43C-177.271 -447.82 -177.185 -445.183 -177.003 -442.592C-173.909 -397.799 -145.654 -359.69 -93.0337 -329.309C-70.3001 -316.183 -48.5517 -305.229 -29.3586 -295.567C-1.70605 -281.64 16.5284 -271.571 25.0704 -265.52C18.4457 -257.952 6.04261 -246.625 -1.37216 -239.852C-32.7701 -211.18 -75.7612 -171.918 -92.4915 -112.117C-97.0237 -95.8911 -99.3179 -79.0653 -99.3179 -62.0966C-99.3179 -9.22379 -77.8306 45.5161 -33.6296 105.252C15.7714 172.03 23.1531 209.223 23.1531 225.449C23.1531 227.292 23.044 229.016 22.8424 230.56C22.449 233.483 21.7812 234.757 21.7746 234.769C21.8044 234.717 22.5151 233.406 24.9713 231.24L47.4106 253.77L-4.27791 285.461L86.0051 415.554L141.376 381.629C151.373 375.512 202.007 341.261 217.226 267.937C220.089 254.183 221.534 239.802 221.534 225.204C221.537 157.792 190.48 81.6345 129.211 -1.16504C101.8 -38.2123 98.8413 -55.5228 98.8413 -61.2454C98.8413 -70.7549 113.892 -85.2073 136.847 -106.171C172.017 -138.285 220.169 -182.26 225.613 -251.999C226.016 -257.24 226.218 -262.444 226.218 -267.483C226.218 -377.941 133.452 -425.061 65.2847 -459.383C107.525 -494.924 157.779 -549.505 157.783 -628.282C157.783 -640.711 156.497 -653.433 153.971 -666.096C149.498 -688.443 141.108 -708.338 134.368 -724.328C131.436 -731.278 126.943 -741.946 125.052 -748.486C129.231 -752.857 139.505 -761.745 162.464 -773.982C198.678 -793.284 259.543 -836.995 260.27 -912.873V-914.128V-914.175Z" stroke="black" stroke-width="2.7"/>
<path d="M161.746 -1030.55L162.624 -1031.57L162.624 -1031.57L161.746 -1030.55ZM106.534 -1069.38L105.881 -1068.19L105.881 -1068.19L106.534 -1069.38ZM78.1242 -1085.08L76.982 -1085.8L77.6616 -1086.88L78.7774 -1086.26L78.1242 -1085.08ZM10.8425 -978.294L10.1834 -977.116L8.94214 -977.81L9.70034 -979.013L10.8425 -978.294ZM39.1793 -962.44L38.5202 -961.262L38.5202 -961.262L39.1793 -962.44ZM93.1422 -916.859L94.2834 -917.58L94.9271 -916.562L93.988 -915.807L93.1422 -916.859ZM80.9176 -909.095L81.5527 -907.904L81.5526 -907.904L80.9176 -909.095ZM-19.319 -667.168L-18.075 -667.692L-18.075 -667.692L-19.319 -667.168ZM-8.4762 -637.415L-9.79991 -637.15L-9.79995 -637.15L-8.4762 -637.415ZM-69.1167 -556.088L-68.299 -555.014L-68.299 -555.014L-69.1167 -556.088ZM-144.015 -444.602L-145.362 -444.508L-145.362 -444.509L-144.015 -444.602ZM-75.7281 -355.781L-75.0533 -356.951L-75.0529 -356.95L-75.7281 -355.781ZM-13.7489 -322.95L-14.356 -321.744L-14.356 -321.744L-13.7489 -322.95ZM60.7592 -263.342L59.4133 -263.446L59.4133 -263.447L60.7592 -263.342ZM21.6622 -217.571L22.5726 -216.574L22.5725 -216.574L21.6622 -217.571ZM-60.5184 -104.22L-61.8186 -104.583L-61.8185 -104.584L-60.5184 -104.22ZM-6.49275 87.5154L-5.40755 86.7124L-5.40748 86.7125L-6.49275 87.5154ZM55.6386 234.425L56.9768 234.603L56.9766 234.604L55.6386 234.425ZM47.566 253.922L48.4567 254.937L46.6711 252.911L47.566 253.922ZM48.7164 253.059L47.9462 251.95L48.9911 251.224L49.7775 252.224L48.7164 253.059ZM68.3525 278.027L69.4136 277.193L70.3515 278.385L69.058 279.178L68.3525 278.027ZM41.4669 294.508L40.3578 295.278L39.5431 294.104L40.7614 293.357L41.4669 294.508ZM95.6413 372.567L96.3466 373.718L95.2593 374.384L94.5323 373.336L95.6413 372.567ZM123.327 355.604L122.622 354.453L122.622 354.453L123.327 355.604ZM184.781 261.987L183.459 261.713L183.459 261.712L184.781 261.987ZM188.48 225.204L187.13 225.204L187.13 225.204L188.48 225.204ZM102.068 16.5711L100.982 17.3741L100.982 17.3739L102.068 16.5711ZM113.813 -128.452L114.723 -127.455L114.723 -127.455L113.813 -128.452ZM192.638 -254.273L193.984 -254.168L193.984 -254.168L192.638 -254.273ZM48.9213 -432.377L49.5283 -433.583L49.5285 -433.583L48.9213 -432.377ZM6.99796 -454.083L6.3511 -452.898L4.53738 -453.888L6.17268 -455.152L6.99796 -454.083ZM14.026 -459.464L13.2083 -460.538L13.2083 -460.538L14.026 -459.464ZM124.725 -628.282L126.075 -628.282L126.075 -628.282L124.725 -628.282ZM121.479 -660.367L122.803 -660.632L122.803 -660.632L121.479 -660.367ZM103.638 -712.88L102.394 -712.355L102.394 -712.356L103.638 -712.88ZM91.4464 -755.584L90.1286 -755.878L90.1288 -755.879L91.4464 -755.584ZM146.156 -801.004L145.521 -802.196L145.521 -802.196L146.156 -801.004ZM227.213 -913.153H228.563L228.563 -913.14L227.213 -913.153ZM88.0084 303.03L89.0697 302.195L89.9561 303.323L88.7771 304.139L88.0084 303.03ZM85.6514 304.459L86.2185 305.684L85.128 306.189L84.5003 305.164L85.6514 304.459ZM73.3607 284.399L72.2095 285.104L74.4219 283.564L73.3607 284.399ZM225.863 -914.175C225.863 -953.658 204.142 -992.466 160.868 -1029.52L162.624 -1031.57C206.232 -994.231 228.563 -954.739 228.563 -914.175H225.863ZM160.868 -1029.52C133.902 -1052.61 106.985 -1067.58 105.881 -1068.19L107.186 -1070.56C108.357 -1069.91 135.456 -1054.84 162.624 -1031.57L160.868 -1029.52ZM105.881 -1068.19L77.4711 -1083.9L78.7774 -1086.26L107.187 -1070.56L105.881 -1068.19ZM79.2664 -1084.36L11.9847 -977.574L9.70034 -979.013L76.982 -1085.8L79.2664 -1084.36ZM11.5017 -979.472L39.8385 -963.618L38.5202 -961.262L10.1834 -977.116L11.5017 -979.472ZM39.8384 -963.618C52.4252 -956.577 64.2925 -947.813 73.8688 -939.459C83.4223 -931.124 90.7815 -923.122 94.2834 -917.58L92.001 -916.138C88.7063 -921.351 81.5764 -929.151 72.0938 -937.424C62.634 -945.677 50.9182 -954.326 38.5202 -961.262L39.8384 -963.618ZM93.988 -915.807C91.5813 -913.872 87.6804 -911.171 81.5527 -907.904L80.2825 -910.287C86.2868 -913.488 90.042 -916.099 92.2964 -917.911L93.988 -915.807ZM81.5526 -907.904C-0.382858 -864.227 -39.7836 -813.387 -39.7836 -752.559H-42.4836C-42.4836 -814.842 -2.03752 -866.405 80.2825 -910.287L81.5526 -907.904ZM-39.7836 -752.559C-39.7836 -719.235 -27.2906 -689.554 -18.075 -667.692L-20.563 -666.644C-29.7604 -688.462 -42.4836 -718.616 -42.4836 -752.559H-39.7836ZM-18.075 -667.692C-13.3131 -656.393 -8.72631 -645.545 -7.15244 -637.68L-9.79995 -637.15C-11.307 -644.682 -15.7516 -655.227 -20.5631 -666.644L-18.075 -667.692ZM-7.15248 -637.68C-6.52548 -634.549 -6.20721 -631.518 -6.20721 -628.654H-8.90721C-8.90721 -631.32 -9.20379 -634.173 -9.79991 -637.15L-7.15248 -637.68ZM-6.20721 -628.654C-6.20721 -617.316 -11.6285 -606.635 -22.0182 -594.979C-32.4001 -583.331 -47.885 -570.553 -68.299 -555.014L-69.9344 -557.163C-49.5192 -572.703 -34.2243 -585.342 -24.0338 -596.775C-13.8511 -608.199 -8.90721 -618.261 -8.90721 -628.654H-6.20721ZM-68.299 -555.014C-85.924 -541.599 -104.574 -527.395 -118.837 -510.525C-133.073 -493.685 -142.866 -474.267 -142.866 -450.43H-145.566C-145.566 -475.088 -135.411 -495.102 -120.899 -512.268C-106.412 -529.404 -87.5122 -543.783 -69.9343 -557.163L-68.299 -555.014ZM-142.866 -450.43C-142.866 -448.538 -142.801 -446.627 -142.668 -444.695L-145.362 -444.509C-145.499 -446.503 -145.566 -448.476 -145.566 -450.43H-142.866ZM-142.668 -444.695C-140.919 -419.408 -128.072 -399.802 -113.588 -385.323C-99.0985 -370.839 -83.0523 -361.567 -75.0533 -356.951L-76.403 -354.612C-84.4169 -359.238 -100.736 -368.658 -115.497 -383.414C-130.264 -398.175 -143.553 -418.358 -145.362 -444.508L-142.668 -444.695ZM-75.0529 -356.95C-53.2005 -344.328 -31.938 -333.62 -13.1417 -324.156L-14.356 -321.744C-33.146 -331.205 -54.4746 -341.946 -76.4034 -354.612L-75.0529 -356.95ZM-13.1417 -324.156C19.2745 -307.834 38.0563 -297.345 48.7305 -289.12C54.08 -284.997 57.4823 -281.378 59.5365 -277.797C61.6105 -274.181 62.2579 -270.695 62.2579 -266.952H59.5579C59.5579 -270.34 58.9823 -273.336 57.1944 -276.454C55.3866 -279.605 52.2881 -282.97 47.0825 -286.981C36.6462 -295.023 18.0996 -305.402 -14.356 -321.744L-13.1417 -324.156ZM62.2579 -266.952C62.2579 -265.785 62.2067 -264.538 62.1051 -263.237L59.4133 -263.447C59.51 -264.686 59.5579 -265.863 59.5579 -266.952H62.2579ZM62.1051 -263.237C61.8676 -260.185 60.2879 -256.761 57.9456 -253.183C55.5835 -249.575 52.3479 -245.665 48.6102 -241.619C41.1359 -233.526 31.5261 -224.751 22.5726 -216.574L20.7518 -218.568C29.7286 -226.766 39.2459 -235.46 46.6268 -243.451C50.3166 -247.446 53.4406 -251.231 55.6866 -254.662C57.9524 -258.123 59.2293 -261.082 59.4133 -263.446L62.1051 -263.237ZM22.5725 -216.574C-7.66464 -188.963 -44.947 -154.876 -59.2183 -103.856L-61.8185 -104.584C-47.3101 -156.451 -9.41999 -191.016 20.7519 -218.568L22.5725 -216.574ZM-59.2182 -103.857C-62.9964 -90.3348 -64.9138 -76.2875 -64.9138 -62.0966H-67.6138C-67.6138 -76.5307 -65.6635 -90.8226 -61.8186 -104.583L-59.2182 -103.857ZM-64.9138 -62.0966C-64.9138 -16.1706 -45.5323 32.4877 -5.40755 86.7124L-7.57795 88.3185C-47.895 33.8339 -67.6138 -15.381 -67.6138 -62.0966H-64.9138ZM-5.40748 86.7125C46.5026 156.877 57.5605 200.784 57.5605 225.449H54.8605C54.8605 201.589 44.1534 158.241 -7.57802 88.3184L-5.40748 86.7125ZM57.5605 225.449C57.5605 228.656 57.3587 231.732 56.9768 234.603L54.3004 234.247C54.6656 231.501 54.8605 228.544 54.8605 225.449H57.5605ZM56.9766 234.604C55.0668 248.848 48.921 254.529 48.4567 254.937L46.6753 252.908C46.7134 252.874 52.4881 247.763 54.3006 234.245L56.9766 234.604ZM46.6711 252.911C47.0277 252.596 47.3372 252.362 47.5737 252.196C47.6919 252.113 47.7902 252.049 47.8639 252.001C47.9741 251.931 47.9528 251.945 47.9462 251.95L49.4866 254.167C49.448 254.194 49.4048 254.221 49.3929 254.229C49.3697 254.243 49.3485 254.257 49.3219 254.274C49.2708 254.307 49.204 254.35 49.1227 254.407C48.96 254.521 48.7323 254.693 48.4609 254.933L46.6711 252.911ZM49.7775 252.224L69.4136 277.193L67.2913 278.862L47.6552 253.893L49.7775 252.224ZM69.058 279.178L42.1724 295.659L40.7614 293.357L67.6469 276.876L69.058 279.178ZM42.576 293.738L96.7504 371.797L94.5323 373.336L40.3578 295.278L42.576 293.738ZM94.9361 371.416L122.622 354.453L124.032 356.755L96.3466 373.718L94.9361 371.416ZM122.622 354.453C130.504 349.625 170.898 322.222 183.459 261.713L186.102 262.262C173.328 323.802 132.229 351.735 124.032 356.755L122.622 354.453ZM183.459 261.712C185.895 250.001 187.13 237.717 187.13 225.204H189.83C189.83 237.893 188.578 250.362 186.102 262.262L183.459 261.712ZM187.13 225.204C187.136 164.677 158.248 94.7637 100.982 17.3741L103.153 15.7681C160.577 93.3713 189.836 163.849 189.83 225.204L187.13 225.204ZM100.982 17.3739C76.8944 -15.1897 64.4339 -41.6826 64.4339 -61.2453H67.1339C67.1339 -42.6267 79.0962 -16.7532 103.153 15.7683L100.982 17.3739ZM64.4339 -61.2453C64.4339 -72.7799 68.9454 -82.864 77.2298 -93.5243C85.4867 -104.149 97.5857 -115.463 112.903 -129.449L114.723 -127.455C99.3664 -113.432 87.4508 -102.276 79.3617 -91.8675C71.3 -81.4939 67.1339 -71.9795 67.1339 -61.2453H64.4339ZM112.903 -129.449C146.069 -159.738 186.821 -197.021 191.292 -254.378L193.984 -254.168C189.418 -195.596 147.771 -157.636 114.723 -127.455L112.903 -129.449ZM191.292 -254.378C191.637 -258.8 191.814 -263.208 191.814 -267.483H194.514C194.514 -263.134 194.334 -258.657 193.984 -254.168L191.292 -254.378ZM191.814 -267.483C191.814 -313.172 172.867 -345.542 145.481 -370.77C118.036 -396.054 82.1549 -414.131 48.3142 -431.171L49.5285 -433.583C83.2968 -416.579 119.537 -398.342 147.311 -372.756C175.145 -347.115 194.514 -314.06 194.514 -267.483H191.814ZM48.3143 -431.171C34.542 -438.104 20.4762 -445.187 6.3511 -452.898L7.64481 -455.268C21.7243 -447.582 35.7506 -440.518 49.5283 -433.583L48.3143 -431.171ZM6.17268 -455.152C8.88754 -457.249 11.3471 -459.121 13.2083 -460.538L14.8436 -458.39C12.9826 -456.973 10.5298 -455.106 7.82323 -453.015L6.17268 -455.152ZM13.2083 -460.538C54.7549 -492.16 123.372 -544.479 123.375 -628.282L126.075 -628.282C126.072 -542.95 56.1984 -489.865 14.8436 -458.39L13.2083 -460.538ZM123.375 -628.282C123.375 -638.689 122.294 -649.397 120.155 -660.103L122.803 -660.632C124.975 -649.759 126.075 -638.875 126.075 -628.282H123.375ZM120.155 -660.103C116.308 -679.338 108.945 -696.817 102.394 -712.355L104.882 -713.404C111.421 -697.895 118.894 -680.175 122.803 -660.632L120.155 -660.103ZM102.394 -712.356C99.3073 -719.679 96.1598 -727.145 93.7863 -733.998C91.4226 -740.823 89.7724 -747.187 89.7724 -752.279H92.4724C92.4724 -747.666 93.9891 -741.663 96.3377 -734.882C98.6766 -728.128 101.787 -720.748 104.882 -713.404L102.394 -712.356ZM89.7724 -752.279C89.7724 -753.596 89.8914 -754.812 90.1286 -755.878L92.7641 -755.291C92.5781 -754.455 92.4724 -753.441 92.4724 -752.279H89.7724ZM90.1288 -755.879C90.9513 -759.562 97.2719 -776.478 145.521 -802.196L146.791 -799.813C98.7513 -774.207 93.3232 -757.795 92.7639 -755.29L90.1288 -755.879ZM145.521 -802.196C175.495 -818.17 225.296 -853.684 225.863 -913.166L228.563 -913.14C227.98 -852.032 176.87 -815.843 146.791 -799.813L145.521 -802.196ZM225.863 -913.153V-914.175H228.563V-913.153H225.863ZM88.7771 304.139C88.007 304.673 87.3833 305.052 86.9442 305.301C86.7247 305.425 86.5512 305.517 86.4287 305.58C86.3674 305.611 86.3189 305.636 86.2837 305.653C86.266 305.661 86.2517 305.668 86.2409 305.673C86.2354 305.676 86.2308 305.678 86.2271 305.68C86.2252 305.681 86.2236 305.682 86.2221 305.682C86.2214 305.683 86.2208 305.683 86.2201 305.683C86.2198 305.683 86.2195 305.683 86.2193 305.684C86.2191 305.684 86.2189 305.684 86.2189 305.684C86.2187 305.684 86.2185 305.684 85.6514 304.459C85.0843 303.234 85.0841 303.234 85.0839 303.234C85.0839 303.234 85.0837 303.234 85.0836 303.234C85.0834 303.234 85.0832 303.234 85.083 303.234C85.0826 303.234 85.0822 303.235 85.0819 303.235C85.0814 303.235 85.081 303.235 85.0809 303.235C85.0806 303.235 85.0811 303.235 85.0825 303.234C85.0853 303.233 85.0915 303.23 85.101 303.226C85.12 303.216 85.1521 303.2 85.1969 303.177C85.2864 303.132 85.4265 303.057 85.6123 302.952C85.9839 302.741 86.5387 302.405 87.2397 301.92L88.7771 304.139ZM84.5003 305.164L72.2095 285.104L74.5118 283.694L86.8025 303.753L84.5003 305.164ZM74.4219 283.564L89.0697 302.195L86.9471 303.864L72.2994 285.233L74.4219 283.564Z" fill="black"/>
<path fill-rule="evenodd" clip-rule="evenodd" d="M194.156 -914.175C194.156 -945.089 175.769 -976.514 139.479 -1007.58C115.149 -1028.42 90.7985 -1042.03 89.777 -1042.6L56.0882 -989.136C85.1721 -972.866 128.041 -937.851 128.041 -914.178C128.041 -914.103 128.041 -914.032 128.038 -913.96C127.895 -901.102 111.205 -889.52 97.2315 -882.073C-42.8757 -807.392 -10.1918 -729.883 11.4277 -678.585C16.8128 -665.82 21.8937 -653.756 24.0094 -643.156C33.0737 -597.914 -0.254765 -568.528 -48.3136 -531.949C-81.8305 -506.431 -113.46 -482.276 -111.023 -446.584C-108.832 -414.88 -79.9561 -394.683 -58.4192 -382.247C-37.3286 -370.069 -16.4661 -359.565 1.94355 -350.292C72.326 -314.854 96.6827 -299.087 93.7274 -261.08C91.9687 -238.46 70.0649 -218.456 44.6967 -195.293C16.0128 -169.097 -16.4992 -139.403 -28.542 -96.323C-42.1385 -47.6908 -26.0561 6.65454 20.6507 69.7794C83.8961 155.266 92.4282 208.617 88.4382 238.317C84.6697 266.399 69.0633 277.558 68.4021 278.015C68.8814 277.688 69.1558 277.536 69.1558 277.536L105.271 329.579C109 327.293 142.008 305.81 152.338 256.041C164.943 195.364 138.887 120.751 74.931 34.3071C-0.383682 -67.4867 37.8505 -102.403 90.7787 -150.734C121.377 -178.681 156.07 -210.36 159.667 -256.541C166.037 -338.213 101.496 -370.662 33.1729 -405.063C14.7103 -414.358 -4.38694 -423.973 -23.8115 -435.188C-37.365 -443.017 -42.5781 -448.32 -44.426 -450.647C-39.8674 -458.42 -20.0958 -473.469 -6.70095 -483.668C38.1877 -517.833 106.002 -569.484 88.9936 -654.633C85.6944 -671.098 79.1887 -686.538 72.888 -701.469C63.7113 -723.25 55.0238 -743.819 59.1031 -761.99C63.8733 -783.33 87.6713 -805.549 129.849 -828.029C182.592 -856.142 193.934 -889.989 194.152 -913.432C194.156 -913.681 194.156 -913.926 194.156 -914.175Z" stroke="black" stroke-width="2.7"/>
<path d="M72.9538 -1015.86C72.9538 -1015.86 240.555 -922.754 113.535 -855.05C-33.4414 -776.705 44.0253 -711.269 56.4978 -648.893C83.9189 -511.798 -170.656 -483.524 -41.1173 -408.718C49.9194 -356.143 132.864 -337.907 126.702 -258.811C119.026 -160.297 -92.5414 -137.622 47.7905 52.0417C188.122 241.708 87.2115 303.556 87.2115 303.556" stroke="black" stroke-width="2.7"/>
</g>
</svg>
