<svg width="239" height="183" viewBox="0 0 239 183" fill="none" xmlns="http://www.w3.org/2000/svg">
<rect width="183" height="239" transform="matrix(0 1 1 0 0 0)" fill="white"/>
<mask id="mask0_0_7" style="mask-type:alpha" maskUnits="userSpaceOnUse" x="0" y="0" width="239" height="183">
<rect width="183" height="239" transform="matrix(0 1 1 0 0 0)" fill="white"/>
</mask>
<g mask="url(#mask0_0_7)">
<path fill-rule="evenodd" clip-rule="evenodd" d="M388.5 -743.529C388.5 -813.109 348.322 -876.372 269.07 -931.564C229.894 -958.848 190.562 -976.76 186.209 -978.711L15.8672 -1055.3L-219.396 -751.597L-170.6 -729.394C-197.045 -693.441 -210.424 -654.091 -210.424 -612.081C-210.424 -588.084 -205.796 -563.842 -196.338 -538.405C-242.982 -508.268 -313.5 -454.132 -313.5 -366.35C-313.5 -362.067 -313.325 -357.738 -312.961 -353.488C-307.289 -286.85 -263.59 -231.913 -182.983 -189.991C-201.931 -166.616 -215.564 -142.505 -224.377 -116.881C-231.795 -95.2822 -235.547 -72.9531 -235.547 -50.5053C-235.547 13.8239 -206.325 77.2207 -146.19 143.314C-136.57 153.886 -129.612 162.568 -124.607 169.493L-191.274 202.728L43.4768 477.833L209.59 395.056C227.398 386.2 317.589 336.902 343.01 237.277C347.496 219.731 349.763 201.523 349.763 183.166C349.767 114.152 317.443 40.5319 253.606 -35.9131C299.589 -73.4458 346.494 -124.686 353.489 -197.571C354.13 -204.421 354.448 -211.127 354.448 -217.553C354.448 -288.058 319.803 -348.407 251.381 -397.237C274.65 -432.92 286.009 -470.336 286.012 -510.995C286.012 -527.353 283.963 -543.982 279.923 -560.419C279.159 -563.542 278.313 -566.655 277.391 -569.785C331.132 -603.611 387.525 -658.778 388.5 -741.563V-743.291V-743.529Z" stroke="black" stroke-width="2.7"/>
<path d="M246.806 -912.886L246.035 -911.778L246.035 -911.778L246.806 -912.886ZM169.485 -956.915L168.932 -955.683L168.931 -955.684L169.485 -956.915ZM27.52 -1020.75L26.4527 -1021.57L27.1039 -1022.41L28.0736 -1021.98L27.52 -1020.75ZM-174.147 -760.413L-174.706 -759.184L-176.259 -759.891L-175.214 -761.239L-174.147 -760.413ZM-124.468 -737.808L-123.909 -739.037L-122.2 -738.259L-123.481 -736.887L-124.468 -737.808ZM-158.15 -529.706L-156.917 -530.255L-156.437 -529.178L-157.439 -528.558L-158.15 -529.706ZM-279.973 -355.108L-278.628 -355.223L-278.628 -355.222L-279.973 -355.108ZM-148.944 -203.251L-148.37 -204.473L-148.369 -204.473L-148.944 -203.251ZM-136.329 -197.44L-135.773 -198.67L-134.015 -197.876L-135.364 -196.496L-136.329 -197.44ZM-192.411 -110.458L-193.688 -110.896L-193.687 -110.897L-192.411 -110.458ZM-119.053 128.886L-120.052 129.794L-120.052 129.794L-119.053 128.886ZM-82.5281 178.686L-81.3076 178.109L-80.7425 179.304L-81.9258 179.894L-82.5281 178.686ZM-145.522 210.089L-146.549 210.965L-147.67 209.651L-146.124 208.881L-145.522 210.089ZM53.1064 442.87L53.7085 444.079L52.7642 444.549L52.0794 443.747L53.1064 442.87ZM191.534 373.889L190.932 372.681L190.933 372.681L191.534 373.889ZM310.564 232.438L309.256 232.104L309.256 232.104L310.564 232.438ZM316.709 183.166L315.359 183.166L315.359 183.166L316.709 183.166ZM211.342 -38.9932L210.335 -38.0945L209.359 -39.1887L210.53 -40.0713L211.342 -38.9932ZM320.521 -199.418L321.865 -199.293L321.865 -199.289L320.521 -199.418ZM209.626 -391.536L208.914 -390.39L207.636 -391.183L208.563 -392.368L209.626 -391.536ZM252.958 -510.995L254.308 -510.995L254.308 -510.995L252.958 -510.995ZM247.437 -555.754L248.748 -556.077L248.749 -556.076L247.437 -555.754ZM239.934 -579.571L238.672 -579.091L238.256 -580.184L239.278 -580.752L239.934 -579.571ZM355.443 -741.79H356.793V-741.782L356.793 -741.775L355.443 -741.79ZM-13.9075 183.396L-13.9137 182.046L-12.5575 182.04V183.396H-13.9075ZM-14.0463 184.965L-12.7154 185.191L-15.3821 184.769L-14.0463 184.965ZM-13.9571 184.356L-13.8556 183.01L-12.4113 183.119L-12.6214 184.552L-13.9571 184.356ZM-25.9536 183.451L-26.0551 184.798L-25.9598 182.101L-25.9536 183.451ZM354.093 -743.529C354.093 -805.093 317.921 -861.714 246.035 -911.778L247.578 -913.994C319.867 -863.649 356.793 -806.307 356.793 -743.529H354.093ZM246.035 -911.778C209.459 -937.251 172.953 -953.879 168.932 -955.683L170.038 -958.147C174.116 -956.317 210.799 -939.608 247.578 -913.994L246.035 -911.778ZM168.931 -955.684L26.9664 -1019.52L28.0736 -1021.98L170.039 -958.146L168.931 -955.684ZM28.5872 -1019.92L-173.079 -759.586L-175.214 -761.239L26.4527 -1021.57L28.5872 -1019.92ZM-173.587 -761.641L-123.909 -739.037L-125.027 -736.579L-174.706 -759.184L-173.587 -761.641ZM-123.481 -736.887C-158.409 -699.475 -176.013 -657.628 -176.013 -612.081H-178.713C-178.713 -658.398 -160.787 -700.884 -125.455 -738.729L-123.481 -736.887ZM-176.013 -612.081C-176.013 -580.528 -166.983 -552.847 -156.917 -530.255L-159.383 -529.156C-169.535 -551.94 -178.713 -580.01 -178.713 -612.081H-176.013ZM-157.439 -528.558C-179.322 -515.002 -209.754 -495.858 -234.723 -469.357C-259.676 -442.874 -279.096 -409.126 -279.096 -366.35H-281.796C-281.796 -410.024 -261.946 -444.402 -236.689 -471.208C-211.449 -497.996 -180.733 -517.304 -158.861 -530.853L-157.439 -528.558ZM-279.096 -366.35C-279.096 -362.647 -278.942 -358.905 -278.628 -355.223L-281.318 -354.993C-281.639 -358.755 -281.796 -362.573 -281.796 -366.35H-279.096ZM-278.628 -355.222C-273.37 -293.453 -229.774 -242.694 -148.37 -204.473L-149.517 -202.029C-231.371 -240.461 -275.945 -291.874 -281.318 -354.993L-278.628 -355.222ZM-148.369 -204.473C-144.253 -202.538 -140.071 -200.61 -135.773 -198.67L-136.884 -196.209C-141.195 -198.155 -145.389 -200.089 -149.518 -202.03L-148.369 -204.473ZM-135.364 -196.496C-162.354 -168.883 -180.689 -140.381 -191.134 -110.019L-193.687 -110.897C-183.089 -141.703 -164.511 -170.539 -137.294 -198.383L-135.364 -196.496ZM-191.134 -110.02C-197.774 -90.6618 -201.143 -70.6435 -201.143 -50.5052H-203.843C-203.843 -70.9469 -200.423 -91.2609 -193.688 -110.896L-191.134 -110.02ZM-201.143 -50.5052C-201.143 8.04212 -174.067 66.4117 -118.055 127.977L-120.052 129.794C-176.329 67.9369 -203.843 8.94786 -203.843 -50.5052H-201.143ZM-118.055 127.977C-95.0592 153.249 -85.343 169.573 -81.3076 178.109L-83.7485 179.263C-87.6403 171.031 -97.1833 154.926 -120.052 129.794L-118.055 127.977ZM-81.9258 179.894L-144.92 211.297L-146.124 208.881L-83.1304 177.478L-81.9258 179.894ZM-144.495 209.212L54.1333 441.994L52.0794 443.747L-146.549 210.965L-144.495 209.212ZM52.5043 441.662L190.932 372.681L192.136 375.098L53.7085 444.079L52.5043 441.662ZM190.933 372.681C206.722 364.825 286.536 321.131 309.256 232.104L311.872 232.772C288.841 323.019 208.048 367.181 192.136 375.098L190.933 372.681ZM309.256 232.104C313.307 216.253 315.359 199.787 315.359 183.166H318.059C318.059 200.009 315.98 216.7 311.872 232.772L309.256 232.104ZM315.359 183.166C315.363 114.571 280.155 40.1684 210.335 -38.0945L212.35 -39.8919C282.389 38.6164 318.063 113.637 318.059 183.166L315.359 183.166ZM210.53 -40.0713C250.481 -70.1861 311.672 -121.359 319.177 -199.547L321.865 -199.289C314.236 -119.817 252.084 -68.0134 212.155 -37.9152L210.53 -40.0713ZM319.177 -199.544C319.752 -205.7 320.043 -211.746 320.043 -217.553H322.743C322.743 -211.656 322.447 -205.527 321.865 -199.293L319.177 -199.544ZM320.043 -217.553C320.043 -286.431 282.833 -344.469 208.914 -390.39L210.339 -392.683C284.815 -346.417 322.743 -287.612 322.743 -217.553H320.043ZM208.563 -392.368C237.507 -429.369 251.605 -468.383 251.608 -510.995L254.308 -510.995C254.305 -467.721 239.967 -428.132 210.69 -390.705L208.563 -392.368ZM251.608 -510.995C251.608 -525.676 249.764 -540.625 246.126 -555.432L248.749 -556.076C252.436 -541.067 254.308 -525.902 254.308 -510.995H251.608ZM246.127 -555.431C244.233 -563.123 241.768 -570.962 238.672 -579.091L241.195 -580.052C244.327 -571.828 246.827 -563.884 248.748 -556.077L246.127 -555.431ZM239.278 -580.752C289.404 -608.579 353.133 -660.013 354.093 -741.806L356.793 -741.775C355.815 -658.438 290.898 -606.32 240.589 -578.391L239.278 -580.752ZM354.093 -741.79V-743.329H356.793V-741.79H354.093ZM354.093 -743.329V-743.529H356.793V-743.329H354.093ZM-12.5575 183.396C-12.5575 184.389 -12.6817 184.993 -12.7154 185.191L-15.3773 184.739C-15.3449 184.548 -15.2575 184.141 -15.2575 183.396H-12.5575ZM-15.3821 184.769L-15.2928 184.16L-12.6214 184.552L-12.7106 185.161L-15.3821 184.769ZM-14.0586 185.702L-26.0551 184.798L-25.8521 182.105L-13.8556 183.01L-14.0586 185.702ZM-25.9598 182.101L-13.9137 182.046L-13.9013 184.746L-25.9474 184.801L-25.9598 182.101Z" fill="black"/>
<path fill-rule="evenodd" clip-rule="evenodd" d="M322.385 -743.529C322.385 -798.297 289.463 -848.994 224.539 -894.211C190.361 -918.015 156.503 -933.441 152.758 -935.122L39.1694 -986.193L-128.901 -769.231L-74.7695 -744.598C-120.944 -706.019 -144.309 -661.568 -144.309 -612.081C-144.309 -574.627 -129.86 -542.832 -119.106 -521.678C-123.44 -518.803 -128.841 -515.333 -135.529 -511.192C-177.37 -485.295 -247.385 -441.948 -247.385 -366.35C-247.385 -363.151 -247.25 -359.916 -246.982 -356.73C-242.41 -302.955 -203.597 -258.567 -131.641 -224.779C-115.509 -217.204 -100.134 -210.579 -85.7975 -204.596C-113.579 -181.096 -145.37 -147.847 -160.438 -104.035C-166.405 -86.6406 -169.433 -68.6323 -169.433 -50.5052C-169.433 3.16347 -144.074 57.1228 -91.9098 114.458C-47.9567 162.772 -46.9649 183.194 -46.9616 183.396V183.391C-46.9616 182.463 -46.8658 181.978 -46.8526 181.88L-46.8988 182.213L-31.5602 183.444L-99.7774 217.449L62.7393 407.907L173.482 352.723C187.379 345.807 257.798 307.233 278.118 227.599C281.794 213.224 283.649 198.273 283.649 183.166C283.652 117.826 248.611 46.1743 179.485 -29.7983C174.946 -34.7912 171.445 -38.9983 168.748 -42.4776C172.695 -45.482 176.493 -48.3019 178.923 -50.106C216.826 -78.2644 280.273 -125.386 287.553 -201.268C288.068 -206.814 288.333 -212.282 288.333 -217.553C288.333 -303.729 224.886 -353.983 164.867 -385.593C201.835 -424.415 219.894 -465.682 219.897 -511C219.897 -524.227 218.231 -537.715 214.945 -551.09C211.392 -565.56 206.06 -578.654 200.757 -589.916C249.771 -612.94 321.427 -660.512 322.385 -742.015V-743.372V-743.529Z" stroke="black" stroke-width="2.7"/>
<path fill-rule="evenodd" clip-rule="evenodd" d="M289.328 -743.529C289.328 -790.891 260.042 -835.304 202.275 -875.533C170.625 -897.579 139.472 -911.784 136.027 -913.328L50.8254 -951.639L-83.6487 -778.047L-20.5323 -749.325C-80.7727 -710.559 -111.252 -664.519 -111.252 -612.081C-111.252 -575.076 -94.6833 -543.115 -84.7859 -524.015C-83.6091 -521.751 -81.7512 -518.161 -80.1579 -514.942C-85.252 -510.823 -95.2387 -503.624 -114.729 -491.556C-154.395 -467.004 -214.328 -429.898 -214.328 -366.35C-214.328 -363.691 -214.215 -360.998 -213.997 -358.352C-210.159 -313.249 -176.626 -275.557 -114.333 -246.31C-90.7627 -235.24 -68.5646 -226.146 -48.9748 -218.119C-42.37 -215.418 -36.5982 -213.01 -31.547 -210.87C-63.7449 -186.921 -110.009 -151.281 -128.465 -97.6119C-133.717 -82.3173 -136.375 -66.4695 -136.375 -50.5053C-136.375 -2.17063 -112.954 47.0712 -64.7697 100.03C-17.5769 151.915 -13.9043 176.932 -13.9043 183.365C-13.9043 184.017 -13.9538 184.346 -13.9572 184.376C-13.9208 184.156 -13.6068 182.471 -11.8944 179.813L15.4804 190.162L-54.026 224.81L72.3722 372.944L155.429 331.561C167.369 325.613 227.901 292.396 245.679 222.76C248.935 209.982 250.591 196.661 250.591 183.166C250.594 123.084 217.54 56.2838 152.345 -15.373C137.079 -32.1584 131.277 -42.2326 129.112 -47.0486C135.191 -52.8627 148.758 -62.9319 155.888 -68.2305C192.658 -95.5425 248.218 -136.812 254.578 -203.115C255.044 -208.012 255.275 -212.866 255.275 -217.553C255.275 -304.848 181.495 -349.989 115.793 -379.448C163.525 -420.038 186.837 -463.325 186.84 -511.002C186.84 -522.666 185.369 -534.587 182.46 -546.425C177.409 -566.975 167.987 -585.14 161.118 -598.401C160.781 -599.043 160.397 -599.783 159.981 -600.594C163.898 -602.603 168.761 -604.923 174.777 -607.528C217.183 -625.91 288.452 -667.857 289.328 -742.243V-743.43V-743.529Z" stroke="black" stroke-width="2.7"/>
<path fill-rule="evenodd" clip-rule="evenodd" d="M256.27 -743.529C256.27 -783.485 230.611 -821.614 180.014 -856.857C150.907 -877.124 122.444 -890.127 119.287 -891.54L62.4715 -917.088L-38.4064 -786.863L18.2738 -761.072C25.3117 -757.871 31.8306 -754.263 37.5628 -750.702C-39.2758 -712.624 -78.1943 -666.063 -78.1943 -612.081C-78.1943 -579.9 -63.6622 -551.868 -54.0525 -533.324C-50.4062 -526.292 -45.9137 -517.625 -44.9683 -513.762C-44.6741 -512.587 -44.6179 -511.778 -44.6179 -511.306C-44.6179 -502.447 -81.7248 -479.471 -93.9263 -471.921C-130.792 -449.099 -181.271 -417.838 -181.271 -366.35C-181.271 -364.227 -181.185 -362.082 -181.003 -359.975C-177.909 -323.543 -149.654 -292.547 -97.0337 -267.838C-74.3001 -257.163 -52.5517 -248.253 -33.3586 -240.395C-5.70605 -229.067 12.5284 -220.878 21.0704 -215.956C14.4457 -209.801 2.04261 -200.588 -5.37216 -195.08C-36.7701 -171.76 -79.7612 -139.827 -96.4915 -91.1888C-101.024 -77.9914 -103.318 -64.3064 -103.318 -50.5052C-103.318 -7.50202 -81.8306 37.0198 -37.6296 85.6046C11.7714 139.918 19.1531 170.168 19.1531 183.365C19.1531 184.864 19.044 186.266 18.8424 187.522C18.449 189.9 17.7812 190.936 17.7746 190.946C17.8044 190.903 18.5151 189.837 20.9713 188.075L43.4106 206.4L-8.27791 232.175L82.0051 337.984L137.376 310.392C147.373 305.416 198.007 277.559 213.226 217.922C216.089 206.736 217.534 195.039 217.534 183.166C217.537 128.337 186.48 66.396 125.211 -0.947563C97.7999 -31.0794 94.8413 -45.1586 94.8413 -49.8129C94.8413 -57.5473 109.892 -69.3019 132.847 -86.3526C168.017 -112.472 216.169 -148.238 221.613 -204.959C222.016 -209.222 222.218 -213.454 222.218 -217.553C222.218 -307.392 129.452 -345.716 61.2847 -373.632C103.525 -402.538 153.779 -446.931 153.783 -511.002C153.783 -521.112 152.497 -531.459 149.971 -541.758C145.498 -559.933 137.108 -576.115 130.368 -589.12C127.436 -594.773 122.943 -603.449 121.052 -608.768C125.231 -612.324 135.505 -619.553 158.464 -629.506C194.678 -645.204 255.543 -680.756 256.27 -742.47V-743.491V-743.529Z" stroke="black" stroke-width="2.7"/>
<path d="M157.746 -838.179L158.518 -839.287L158.518 -839.287L157.746 -838.179ZM102.534 -869.759L101.981 -868.527L101.98 -868.528L102.534 -869.759ZM74.1242 -882.532L73.057 -883.359L73.7081 -884.199L74.6778 -883.763L74.1242 -882.532ZM6.84253 -795.679L6.2834 -794.45L4.73039 -795.157L5.7753 -796.506L6.84253 -795.679ZM35.1793 -782.785L34.6202 -781.556L34.6202 -781.556L35.1793 -782.785ZM89.1422 -745.712L90.2082 -746.54L91.1069 -745.384L89.8809 -744.582L89.1422 -745.712ZM76.9176 -739.398L77.4546 -738.159L77.4546 -738.159L76.9176 -739.398ZM-23.319 -542.63L-22.1204 -543.251L-22.1204 -543.251L-23.319 -542.63ZM-12.4762 -518.431L-13.787 -518.108L-13.7871 -518.109L-12.4762 -518.431ZM-73.1167 -452.285L-72.406 -451.137L-72.4061 -451.137L-73.1167 -452.285ZM-148.015 -361.609L-149.36 -361.495L-149.36 -361.495L-148.015 -361.609ZM-79.7281 -289.369L-79.1545 -290.591L-79.1541 -290.591L-79.7281 -289.369ZM-17.7489 -262.666L-18.2605 -261.417L-18.2605 -261.417L-17.7489 -262.666ZM56.7592 -214.185L55.4153 -214.313L55.4154 -214.314L56.7592 -214.185ZM17.6622 -176.958L18.4672 -175.874L18.4671 -175.874L17.6622 -176.958ZM-64.5184 -84.7658L-65.7952 -85.2044L-65.7951 -85.2048L-64.5184 -84.7658ZM-10.4928 71.1791L-9.49419 70.2707L-9.4941 70.2707L-10.4928 71.1791ZM51.6386 190.665L52.9709 190.883L52.9706 190.885L51.6386 190.665ZM43.566 206.523L44.3505 207.622L42.7771 205.428L43.566 206.523ZM44.7164 205.821L44.0523 204.645L44.9612 204.132L45.6869 204.882L44.7164 205.821ZM64.3525 226.129L65.323 225.19L66.6037 226.515L64.9548 227.337L64.3525 226.129ZM37.4669 239.533L36.44 240.409L35.3189 239.096L36.8645 238.325L37.4669 239.533ZM91.6413 303.021L92.2435 304.229L91.2992 304.7L90.6144 303.897L91.6413 303.021ZM119.327 289.225L118.725 288.016L118.725 288.016L119.327 289.225ZM180.781 213.083L179.473 212.749L179.473 212.748L180.781 213.083ZM184.48 183.166L183.13 183.166L183.13 183.166L184.48 183.166ZM98.0677 13.4778L97.0691 14.3863L97.069 14.3861L98.0677 13.4778ZM109.813 -104.475L110.618 -103.391L110.618 -103.391L109.813 -104.475ZM188.638 -206.809L189.982 -206.68L189.982 -206.68L188.638 -206.809ZM44.9213 -351.666L45.4328 -352.916L45.433 -352.916L44.9213 -351.666ZM2.99796 -369.321L2.45013 -368.087L0.133536 -369.116L2.27977 -370.464L2.99796 -369.321ZM10.026 -373.697L9.31534 -374.845L9.31539 -374.845L10.026 -373.697ZM120.725 -511.002L122.075 -511.002L122.075 -511.002L120.725 -511.002ZM117.479 -537.099L118.79 -537.421L118.79 -537.421L117.479 -537.099ZM99.6379 -579.809L98.4394 -579.188L98.4393 -579.188L99.6379 -579.809ZM87.4464 -614.542L86.1442 -614.898L86.1445 -614.899L87.4464 -614.542ZM142.156 -651.483L141.619 -652.722L141.619 -652.722L142.156 -651.483ZM223.213 -742.698H224.563V-742.69L224.563 -742.682L223.213 -742.698ZM84.0084 246.464L84.9791 245.526L86.1938 246.782L84.6711 247.64L84.0084 246.464ZM81.6515 247.626L82.1271 248.89L81.1813 249.246L80.5732 248.439L81.6515 247.626ZM69.3607 231.311L68.2824 232.123L70.3314 230.373L69.3607 231.311ZM221.863 -743.529C221.863 -775.418 200.283 -806.908 156.975 -837.071L158.518 -839.287C202.09 -808.94 224.563 -776.744 224.563 -743.529H221.863ZM156.975 -837.071C130.009 -855.85 103.09 -868.03 101.981 -868.527L103.087 -870.991C104.252 -870.467 131.349 -858.208 158.518 -839.287L156.975 -837.071ZM101.98 -868.528L73.5707 -881.3L74.6778 -883.763L103.087 -870.99L101.98 -868.528ZM75.1915 -881.705L7.90976 -794.852L5.7753 -796.506L73.057 -883.359L75.1915 -881.705ZM7.40166 -796.908L35.7385 -784.014L34.6202 -781.556L6.2834 -794.45L7.40166 -796.908ZM35.7384 -784.014C48.3184 -778.29 60.1839 -771.163 69.7626 -764.367C79.3117 -757.591 86.6864 -751.073 90.2082 -746.54L88.0761 -744.884C84.8014 -749.099 77.687 -755.433 68.2001 -762.165C58.7426 -768.876 47.025 -775.912 34.6202 -781.556L35.7384 -784.014ZM89.8809 -744.582C87.4744 -743.009 83.5763 -740.813 77.4546 -738.159L76.3805 -740.636C82.3909 -743.242 86.1489 -745.368 88.4035 -746.842L89.8809 -744.582ZM77.4546 -738.159C-4.59045 -702.588 -43.7836 -661.271 -43.7836 -612.081H-46.4836C-46.4836 -663.022 -5.82993 -704.993 76.3806 -740.636L77.4546 -738.159ZM-43.7836 -612.081C-43.7836 -585.102 -31.3455 -561.05 -22.1204 -543.251L-24.5176 -542.009C-33.7055 -559.736 -46.4836 -584.35 -46.4836 -612.081H-43.7836ZM-22.1204 -543.251C-17.3697 -534.083 -12.7538 -525.21 -11.1653 -518.754L-13.7871 -518.109C-15.2795 -524.175 -19.695 -532.702 -24.5177 -542.009L-22.1204 -543.251ZM-11.1653 -518.754C-10.5311 -516.178 -10.2072 -513.676 -10.2072 -511.306H-12.9072C-12.9072 -513.433 -13.1982 -515.717 -13.787 -518.108L-11.1653 -518.754ZM-10.2072 -511.306C-10.2072 -501.89 -15.7404 -493.117 -26.116 -483.649C-36.5058 -474.169 -51.9952 -463.774 -72.406 -451.137L-73.8273 -453.433C-53.409 -466.074 -38.1186 -476.352 -27.936 -485.644C-17.7391 -494.948 -12.9072 -503.046 -12.9072 -511.306H-10.2072ZM-72.4061 -451.137C-90.0357 -440.223 -108.68 -428.674 -122.932 -414.963C-137.164 -401.27 -146.866 -385.563 -146.866 -366.35H-149.566C-149.566 -386.579 -139.32 -402.943 -124.804 -416.909C-110.306 -430.856 -91.4004 -442.554 -73.8273 -453.433L-72.4061 -451.137ZM-146.866 -366.35C-146.866 -364.824 -146.802 -363.283 -146.67 -361.724L-149.36 -361.495C-149.499 -363.13 -149.566 -364.747 -149.566 -366.35H-146.866ZM-146.67 -361.724C-144.936 -341.33 -132.186 -325.452 -117.691 -313.667C-103.206 -301.891 -87.1593 -294.349 -79.1545 -290.591L-80.3018 -288.147C-88.31 -291.906 -104.628 -299.567 -119.394 -311.572C-134.15 -323.569 -147.537 -340.053 -149.36 -361.495L-146.67 -361.724ZM-79.1541 -290.591C-57.2988 -280.323 -36.0334 -271.613 -17.2372 -263.915L-18.2605 -261.417C-37.0505 -269.112 -58.3763 -277.846 -80.3022 -288.147L-79.1541 -290.591ZM-17.2372 -263.915C15.1778 -250.64 33.9529 -242.113 44.6234 -235.425C49.9641 -232.078 53.3877 -229.124 55.4687 -226.173C57.587 -223.169 58.2579 -220.249 58.2579 -217.121H55.5579C55.5579 -219.793 55.0057 -222.145 53.2622 -224.617C51.4812 -227.143 48.4041 -229.869 43.1895 -233.137C32.7496 -239.68 14.1963 -248.125 -18.2605 -261.417L-17.2372 -263.915ZM58.2579 -217.121C58.2579 -216.156 58.2058 -215.127 58.103 -214.056L55.4154 -214.314C55.5109 -215.309 55.5579 -216.251 55.5579 -217.121H58.2579ZM58.103 -214.056C57.8528 -211.44 56.2064 -208.583 53.8678 -205.677C51.4941 -202.728 48.2493 -199.541 44.5106 -196.248C37.0324 -189.663 27.4194 -182.524 18.4672 -175.874L16.8572 -178.041C25.8353 -184.71 35.3494 -191.779 42.7263 -198.275C46.4152 -201.523 49.5301 -204.594 51.7645 -207.37C54.0339 -210.19 55.2441 -212.524 55.4153 -214.313L58.103 -214.056ZM18.4671 -175.874C-11.8049 -153.391 -49.0106 -125.706 -63.2418 -84.3267L-65.7951 -85.2048C-51.2465 -127.507 -13.2798 -155.659 16.8573 -178.041L18.4671 -175.874ZM-63.2417 -84.3272C-67.0051 -73.372 -68.9138 -61.9956 -68.9138 -50.5053H-71.6138C-71.6138 -62.2967 -69.6548 -73.9694 -65.7952 -85.2044L-63.2417 -84.3272ZM-68.9138 -50.5053C-68.9138 -13.3166 -49.6153 26.1719 -9.49419 70.2707L-11.4913 72.0876C-51.8121 27.7695 -71.6138 -12.3455 -71.6138 -50.5053H-68.9138ZM-9.4941 70.2707C42.4172 127.339 53.5605 163.137 53.5605 183.365H50.8605C50.8605 164.125 40.2388 128.957 -11.4914 72.0876L-9.4941 70.2707ZM53.5605 183.365C53.5605 185.996 53.3569 188.523 52.9709 190.883L50.3063 190.447C50.6674 188.239 50.8605 185.859 50.8605 183.365H53.5605ZM52.9706 190.885C51.0365 202.617 44.8115 207.293 44.3505 207.622L42.7815 205.425C42.7814 205.425 42.7819 205.424 42.7827 205.424C42.7836 205.423 42.7848 205.422 42.7864 205.421C42.7896 205.419 42.7943 205.415 42.8003 205.411C42.8123 205.402 42.8297 205.389 42.852 205.372C42.8968 205.337 42.9613 205.286 43.0433 205.217C43.2072 205.08 43.4406 204.875 43.7248 204.595C44.2931 204.036 45.0641 203.182 45.889 201.992C47.5355 199.616 49.4103 195.882 50.3066 190.446L52.9706 190.885ZM42.7771 205.428C43.1351 205.17 43.4447 204.98 43.68 204.846C43.7976 204.779 43.8953 204.726 43.9684 204.688C44.0764 204.632 44.058 204.642 44.0523 204.645L45.3804 206.996C45.2293 207.082 44.9028 207.224 44.3549 207.619L42.7771 205.428ZM45.6869 204.882L65.323 225.19L63.382 227.067L43.7459 206.759L45.6869 204.882ZM64.9548 227.337L38.0693 240.741L36.8645 238.325L63.7501 224.92L64.9548 227.337ZM38.4938 238.657L92.6683 302.145L90.6144 303.897L36.44 240.409L38.4938 238.657ZM91.0392 301.813L118.725 288.016L119.929 290.433L92.2435 304.229L91.0392 301.813ZM118.725 288.016C126.662 284.063 166.954 261.797 179.473 212.749L182.089 213.417C169.272 263.635 128.071 286.377 119.929 290.433L118.725 288.016ZM179.473 212.748C181.9 203.26 183.13 193.306 183.13 183.166H185.83C185.83 193.523 184.574 203.702 182.088 213.417L179.473 212.748ZM183.13 183.166C183.136 134.107 154.337 77.3326 97.0691 14.3863L99.0663 12.5693C156.487 75.6837 185.836 133.094 185.83 183.166L183.13 183.166ZM97.069 14.3861C84.9942 1.1097 75.8548 -10.9115 69.7275 -21.599C63.6096 -32.2699 60.4339 -41.7155 60.4339 -49.8129H63.1339C63.1339 -42.3833 66.0639 -33.4176 72.0698 -22.9419C78.0663 -12.4828 87.0688 -0.622149 99.0664 12.5694L97.069 14.3861ZM60.4339 -49.8129C60.4339 -59.3621 65.031 -67.6506 73.3196 -76.3253C81.5873 -84.9781 93.6951 -94.1855 109.008 -105.558L110.618 -103.391C95.257 -91.9823 83.3502 -82.9148 75.2718 -74.4601C67.2144 -66.0273 63.1339 -58.3756 63.1339 -49.8129H60.4339ZM109.008 -105.558C125.58 -117.867 144.046 -131.588 158.944 -148.089C173.828 -164.573 185.072 -183.749 187.294 -206.938L189.982 -206.68C187.686 -182.725 176.07 -163.028 160.948 -146.279C145.841 -129.547 127.153 -115.673 110.618 -103.391L109.008 -105.558ZM187.294 -206.938C187.638 -210.521 187.814 -214.091 187.814 -217.553H190.514C190.514 -214 190.333 -210.344 189.982 -206.68L187.294 -206.938ZM187.814 -217.553C187.814 -254.517 168.977 -280.764 141.587 -301.287C114.141 -321.851 78.254 -336.557 44.4097 -350.417L45.433 -352.916C79.1977 -339.088 115.431 -324.258 143.205 -303.448C171.034 -282.597 190.514 -255.631 190.514 -217.553H187.814ZM44.4098 -350.417C30.6374 -356.056 16.5733 -361.817 2.45013 -368.087L3.54578 -370.555C17.6272 -364.303 31.6553 -358.557 45.4328 -352.916L44.4098 -350.417ZM2.27977 -370.464C4.99461 -372.17 7.45412 -373.693 9.31534 -374.845L10.7366 -372.55C8.87553 -371.397 6.42271 -369.878 3.71614 -368.178L2.27977 -370.464ZM9.31539 -374.845C30.0572 -387.685 57.5978 -404.74 79.9632 -427.133C102.318 -449.516 119.374 -477.105 119.375 -511.002L122.075 -511.002C122.074 -476.119 104.504 -447.884 81.8735 -425.225C59.2528 -402.576 31.4453 -385.369 10.7365 -372.55L9.31539 -374.845ZM119.375 -511.002C119.375 -519.428 118.299 -528.101 116.168 -536.777L118.79 -537.421C120.97 -528.546 122.075 -519.657 122.075 -511.002H119.375ZM116.168 -536.777C112.335 -552.366 104.995 -566.542 98.4394 -579.188L100.836 -580.43C107.372 -567.823 114.868 -553.371 118.79 -537.421L116.168 -536.777ZM98.4393 -579.188C95.3544 -585.141 92.2 -591.226 89.8199 -596.816C87.4556 -602.368 85.7724 -607.614 85.7724 -611.854H88.4724C88.4724 -608.2 89.9561 -603.388 92.3041 -597.873C94.6364 -592.396 97.7397 -586.406 100.837 -580.43L98.4393 -579.188ZM85.7724 -611.854C85.7724 -612.958 85.895 -613.988 86.1442 -614.898L88.7485 -614.186C88.5745 -613.55 88.4724 -612.766 88.4724 -611.854H85.7724ZM86.1445 -614.899C86.5862 -616.508 88.4362 -620.744 96.1418 -627.167C103.848 -633.59 117.478 -642.257 141.619 -652.722L142.693 -650.245C118.69 -639.839 105.31 -631.294 97.8705 -625.093C90.43 -618.891 88.9974 -615.092 88.7482 -614.185L86.1445 -614.899ZM141.619 -652.722C156.567 -659.201 176.535 -669.674 192.817 -684.577C209.094 -699.475 221.581 -718.696 221.863 -742.713L224.563 -742.682C224.269 -717.659 211.242 -697.781 194.64 -682.586C178.045 -667.396 157.772 -656.781 142.693 -650.245L141.619 -652.722ZM221.863 -742.698V-743.529H224.563V-742.698H221.863ZM84.6711 247.64C83.9021 248.074 83.2803 248.381 82.8438 248.582C82.6255 248.683 82.4534 248.757 82.3324 248.807C82.2719 248.833 82.2242 248.852 82.1898 248.865C82.1725 248.872 82.1587 248.878 82.1482 248.882C82.143 248.884 82.1386 248.885 82.1351 248.887C82.1333 248.887 82.1318 248.888 82.1304 248.889C82.1298 248.889 82.1292 248.889 82.1286 248.889C82.1283 248.889 82.1281 248.889 82.1278 248.89C82.1277 248.89 82.1275 248.89 82.1274 248.89C82.1273 248.89 82.1271 248.89 81.6515 247.626C81.1758 246.363 81.1756 246.363 81.1755 246.363C81.1754 246.363 81.1753 246.363 81.1752 246.363C81.175 246.363 81.1748 246.363 81.1746 246.363C81.1743 246.364 81.174 246.364 81.1738 246.364C81.1733 246.364 81.173 246.364 81.173 246.364C81.1729 246.364 81.1737 246.364 81.1753 246.363C81.1785 246.362 81.1851 246.359 81.195 246.355C81.2148 246.348 81.2478 246.334 81.2933 246.315C81.3844 246.277 81.5258 246.216 81.7129 246.13C82.087 245.958 82.6437 245.683 83.3458 245.288L84.6711 247.64ZM80.5732 248.439L68.2824 232.123L70.439 230.499L82.7297 246.814L80.5732 248.439ZM70.3314 230.373L84.9791 245.526L83.0378 247.402L68.3901 232.249L70.3314 230.373Z" fill="black"/>
<path fill-rule="evenodd" clip-rule="evenodd" d="M190.156 -743.529C190.156 -768.673 171.769 -794.231 135.479 -819.501C111.149 -836.448 86.7985 -847.518 85.777 -847.981L52.0882 -804.497C81.1721 -791.265 124.041 -762.785 124.041 -743.531C124.041 -743.471 124.041 -743.413 124.038 -743.354C123.895 -732.896 107.205 -723.476 93.2315 -717.42C-46.8757 -656.679 -14.1918 -593.638 7.42771 -551.916C12.8128 -541.533 17.8937 -531.722 20.0094 -523.101C29.0737 -486.303 -4.25476 -462.402 -52.3136 -432.652C-85.8305 -411.897 -117.46 -392.252 -115.023 -363.221C-112.832 -337.436 -83.9561 -321.009 -62.4192 -310.894C-41.3286 -300.989 -20.4661 -292.446 -2.05645 -284.904C68.326 -256.081 92.6827 -243.258 89.7274 -212.345C87.9687 -193.948 66.0649 -177.678 40.6967 -158.838C12.0128 -137.532 -20.4992 -113.381 -32.542 -78.3427C-46.1385 -38.7885 -30.0561 5.41237 16.6507 56.7539C79.8961 126.283 88.4282 169.675 84.4382 193.831C80.6697 216.671 65.0633 225.747 64.4021 226.119C64.8814 225.853 65.1558 225.729 65.1558 225.729L101.271 268.058C105 266.198 138.008 248.726 148.338 208.247C160.943 158.896 134.887 98.2106 70.931 27.9031C-4.38368 -54.8892 33.8505 -83.2876 86.7787 -122.597C117.377 -145.327 152.07 -171.093 155.667 -208.654C162.037 -275.08 97.4959 -301.472 29.1729 -329.451C10.7103 -337.011 -8.38694 -344.832 -27.8115 -353.953C-41.365 -360.321 -46.5781 -364.634 -48.426 -366.526C-43.8674 -372.848 -24.0958 -385.088 -10.701 -393.383C34.1877 -421.17 102.002 -463.181 84.9936 -532.434C81.6944 -545.826 75.1887 -558.384 68.888 -570.528C59.7113 -588.243 51.0238 -604.973 55.1031 -619.752C59.8733 -637.109 83.6713 -655.18 125.849 -673.464C178.592 -696.329 189.934 -723.858 190.152 -742.925C190.156 -743.127 190.156 -743.327 190.156 -743.529Z" stroke="black" stroke-width="2.7"/>
<path d="M68.9538 -826.229C68.9538 -826.229 236.555 -750.507 109.535 -695.441C-37.4414 -631.72 40.0253 -578.499 52.4978 -527.766C79.9189 -416.262 -174.656 -393.266 -45.1173 -332.424C45.9194 -289.663 128.864 -274.831 122.702 -210.499C115.026 -130.375 -96.5414 -111.932 43.7905 42.3272C184.122 196.589 83.2115 246.892 83.2115 246.892" stroke="black" stroke-width="2.7"/>
</g>
</svg>
