<svg width="31" height="32" viewBox="0 0 31 32" fill="none" xmlns="http://www.w3.org/2000/svg">
<path fill-rule="evenodd" clip-rule="evenodd" d="M0.183594 16C0.183594 7.45749 7.0757 0.533325 15.5771 0.533325C24.0785 0.533325 30.9706 7.45749 30.9706 16C30.9706 24.5425 24.0785 31.4667 15.5771 31.4667C7.0757 31.4667 0.183594 24.5425 0.183594 16ZM21.9164 23.5168C22.3853 23.5168 22.84 23.2693 23.0872 22.8295C23.4488 22.1808 23.2179 21.361 22.5719 20.9997C20.3281 19.7361 17.8838 18.9628 15.3042 18.6989C12.7199 18.435 10.1614 18.7029 7.70778 19.4905C7.00341 19.7169 6.61388 20.4736 6.84015 21.1813C7.06403 21.8878 7.81969 22.2776 8.52173 22.0523C10.6255 21.3775 12.8156 21.1513 15.0337 21.3746C17.2471 21.5998 19.3415 22.263 21.2634 23.3457C21.471 23.4617 21.6972 23.5168 21.9164 23.5168ZM24.9299 18.1316C24.6919 18.5916 24.2255 18.8555 23.7427 18.8555C23.5328 18.8555 23.3229 18.8072 23.1246 18.7029C20.7619 17.4665 18.2103 16.7009 15.5351 16.4281C12.8389 16.1509 10.1684 16.3925 7.59348 17.1387C6.8821 17.3416 6.14045 16.9329 5.93752 16.2184C5.73225 15.5051 6.14273 14.7598 6.85176 14.5538C9.75788 13.7119 12.7713 13.4421 15.8057 13.7514C18.8191 14.0599 21.6972 14.9222 24.3631 16.318C25.0162 16.6613 25.2727 17.4731 24.9299 18.1316ZM24.9998 14.0821C25.1934 14.1777 25.3963 14.2232 25.5969 14.2232C26.089 14.2232 26.5625 13.9506 26.7957 13.478C27.1246 12.8139 26.8564 12.0056 26.194 11.6742C23.1013 10.1245 19.7753 9.15878 16.3071 8.80609C12.8342 8.4513 9.37308 8.72478 6.02615 9.6228C5.31011 9.81426 4.88561 10.5518 5.07686 11.269C5.26811 11.9873 6.00047 12.4127 6.71418 12.2224C9.74854 11.4083 12.8833 11.158 16.0343 11.4818C19.1806 11.8026 22.1963 12.6774 24.9998 14.0821Z" fill="#1AD64B"/>
</svg>
